<svg xmlns="http://www.w3.org/2000/svg" xmlns:xlink="http://www.w3.org/1999/xlink" viewBox="0 0 516.21 345.37"><defs><style>.cls-1{fill:#fad993;stroke:#ff9c7f;}.cls-1,.cls-4{stroke-linecap:round;stroke-linejoin:round;}.cls-2{fill:url(#Névtelen_színátmenet_2);}.cls-3{fill:#596c73;}.cls-4{fill:#b4d4ff;stroke:#0089b4;}</style><linearGradient id="Névtelen_színátmenet_2" x1="26.54" y1="148.49" x2="513.25" y2="148.49" gradientUnits="userSpaceOnUse"><stop offset="0" stop-color="#fff"/><stop offset="0.08" stop-color="#f5f8fa"/><stop offset="0.23" stop-color="#dce4eb"/><stop offset="0.41" stop-color="#b2c4d3"/><stop offset="0.62" stop-color="#7897b2"/><stop offset="0.86" stop-color="#2f5f88"/><stop offset="1" stop-color="#003b6e"/></linearGradient></defs><title>weather</title><g id="Réteg_2" data-name="Réteg 2"><g id="Réteg_1" data-name="Réteg 1"><circle class="cls-1" cx="98" cy="118.99" r="97.5"/><path class="cls-2" d="M104.5,293.49c-5.48,0-49.49-.62-69-31-23.82-37.11,2.69-97.14,46-118,42.88-20.66,87.31,4.27,92,7-6.14-9-33.11-50.43-19-89,20.47-56,117.72-79.31,174-38,47.56,34.9,45.35,100.92,45,108,6.78-8.8,20.36-23.35,41-28,41.37-9.32,91.4,25.6,98,70,6.77,45.51-32.79,96.26-92,100Z"/><path class="cls-3" d="M104.5,293.49a114.11,114.11,0,0,1-19.6-1.86,99.73,99.73,0,0,1-19-5.32,72.77,72.77,0,0,1-17.23-9.5,63.62,63.62,0,0,1-7.34-6.58,59.24,59.24,0,0,1-6.06-7.78,57.53,57.53,0,0,1-7.46-18.19A68.31,68.31,0,0,1,26.5,224.6c.88-13.17,5.07-26,11.25-37.63a107.61,107.61,0,0,1,24.57-30.8,91.85,91.85,0,0,1,16.37-11.23,83.52,83.52,0,0,1,18.54-7.19,90.81,90.81,0,0,1,19.76-2.6,104.06,104.06,0,0,1,19.86,1.62,121,121,0,0,1,19.27,5.09A117.85,117.85,0,0,1,174.37,150l-2.3,2.47A153.85,153.85,0,0,1,159,129.61a122.93,122.93,0,0,1-8.62-25A84.15,84.15,0,0,1,148.51,78a70.36,70.36,0,0,1,2.59-13.23l1.05-3.22,1.27-3.14a59.94,59.94,0,0,1,2.89-6.12,78.4,78.4,0,0,1,16.63-21.06,106.44,106.44,0,0,1,21.89-15.34A137.36,137.36,0,0,1,245.66.73a135.88,135.88,0,0,1,53,4.84,109.6,109.6,0,0,1,24.62,10.86,98.08,98.08,0,0,1,21.06,16.91,106.46,106.46,0,0,1,15.85,21.81,130,130,0,0,1,10.43,24.72A154.86,154.86,0,0,1,376.17,106a158.29,158.29,0,0,1,1.26,26.7l-7-2.6a91.94,91.94,0,0,1,14.8-15.24,73.61,73.61,0,0,1,8.79-6.15c1.52-1,3.14-1.75,4.72-2.61s3.24-1.57,4.94-2.2A65.16,65.16,0,0,1,414,100.67c1.78-.31,3.54-.74,5.33-.91l2.69-.33,2.69-.16A75.21,75.21,0,0,1,446,101.36a88.21,88.21,0,0,1,19.87,7.38A102.66,102.66,0,0,1,475,114c2.92,2,5.8,4,8.51,6.25a92.35,92.35,0,0,1,25.9,33,77.73,77.73,0,0,1,6,20.32,74.63,74.63,0,0,1,0,21.16A81.6,81.6,0,0,1,509.89,215a94.2,94.2,0,0,1-10.14,18.31,100.47,100.47,0,0,1-30.48,28.1,104.84,104.84,0,0,1-38.93,13.79c-1.71.21-3.42.5-5.14.63s-3.45.29-5.16.4l-10.18.52-20.36,1-40.73,2.1c-27.15,1.42-54.3,2.73-81.44,4.27s-54.29,2.92-81.42,4.52Zm0,0,81.4-5c27.13-1.66,54.25-3.52,81.38-5.26s54.25-3.68,81.37-5.52l40.67-2.8,20.34-1.4,10.17-.7c1.68-.13,3.33-.31,5-.47s3.3-.46,5-.69A100.89,100.89,0,0,0,467,257.72a95.86,95.86,0,0,0,28.59-27.27C503,219.53,508.18,207,509.72,194a68.63,68.63,0,0,0-.33-19.47A72.21,72.21,0,0,0,503.54,156a87.63,87.63,0,0,0-24.42-30.27,97.35,97.35,0,0,0-8-5.73,94.34,94.34,0,0,0-8.55-4.8,81.54,81.54,0,0,0-18.32-6.59,67.18,67.18,0,0,0-19.18-1.69l-2.39.15-2.38.3c-1.59.15-3.13.55-4.7.82a58.2,58.2,0,0,0-9.1,2.86c-11.84,4.81-22,13.53-29.92,23.85a3.93,3.93,0,0,1-7-2.53v-.07A151.31,151.31,0,0,0,368.28,107,157.24,157.24,0,0,0,363,82.2c-4.91-16.12-12.87-31.37-24.33-43.53s-26.23-20.93-42.24-26a128.75,128.75,0,0,0-50.1-5.07,134.15,134.15,0,0,0-48.65,13.7,101.51,101.51,0,0,0-20.92,14.12A72.87,72.87,0,0,0,160.91,54.8a52.14,52.14,0,0,0-2.77,5.61l-1.23,2.88-1,2.95a65.42,65.42,0,0,0-2.61,12.26,79.43,79.43,0,0,0,1.32,25.19A118.5,118.5,0,0,0,162.52,128a149.94,149.94,0,0,0,12.41,22.51v0a1.73,1.73,0,0,1-2.31,2.45,113.76,113.76,0,0,0-17.57-8.19,118,118,0,0,0-18.71-5.29A101.29,101.29,0,0,0,117,137.59a88.72,88.72,0,0,0-19.28,2.2,81.23,81.23,0,0,0-18.22,6.72,90,90,0,0,0-16.27,10.75,104,104,0,0,0-24.65,30.17C32.34,198.89,28.05,211.57,27,224.64a67.8,67.8,0,0,0,1.16,19.54,57.14,57.14,0,0,0,7.35,18.12,57.85,57.85,0,0,0,6,7.76,61.53,61.53,0,0,0,7.29,6.59A72.33,72.33,0,0,0,66,286.18a99.29,99.29,0,0,0,18.91,5.38A114,114,0,0,0,104.5,293.49Z"/><path class="cls-4" d="M423.5,257.49q-8.5,26.49-17,53c-5.71,13.44.94,28.47,13,33,13,4.86,28.71-3.79,31-16,2-10.48-6.79-19.13-7.72-20Q433.14,282.47,423.5,257.49Z"/><path class="cls-4" d="M373.55,214.05q6,18.69,12,37.38c4,9.48-.66,20.09-9.17,23.28-9.16,3.43-20.25-2.67-21.87-11.29-1.38-7.39,4.79-13.49,5.45-14.12Q366.75,231.68,373.55,214.05Z"/><path class="cls-4" d="M458.92,178.77l-17.49,54.54c-5.87,13.83,1,29.3,13.38,33.95,13.36,5,29.54-3.89,31.9-16.46,2-10.78-7-19.68-7.95-20.61Z"/></g></g></svg>